<svg id="visual" viewBox="0 0 900 600" width="900" height="600" xmlns="http://www.w3.org/2000/svg" xmlns:xlink="http://www.w3.org/1999/xlink" version="1.1"><rect x="0" y="0" width="900" height="600" fill="#001220"></rect><path d="M0 419L21.5 416C43 413 86 407 128.8 403.8C171.7 400.7 214.3 400.3 257.2 404C300 407.7 343 415.3 385.8 410.5C428.7 405.7 471.3 388.3 514.2 389.3C557 390.3 600 409.7 642.8 421.5C685.7 433.3 728.3 437.7 771.2 431.8C814 426 857 410 878.5 402L900 394L900 601L878.5 601C857 601 814 601 771.2 601C728.3 601 685.7 601 642.8 601C600 601 557 601 514.2 601C471.3 601 428.7 601 385.8 601C343 601 300 601 257.2 601C214.3 601 171.7 601 128.8 601C86 601 43 601 21.5 601L0 601Z" fill="#fa7268"></path><path d="M0 469L21.5 466.7C43 464.3 86 459.7 128.8 460.8C171.7 462 214.3 469 257.2 464.3C300 459.7 343 443.3 385.8 437.3C428.7 431.3 471.3 435.7 514.2 440.8C557 446 600 452 642.8 448.7C685.7 445.3 728.3 432.7 771.2 424.3C814 416 857 412 878.5 410L900 408L900 601L878.5 601C857 601 814 601 771.2 601C728.3 601 685.7 601 642.8 601C600 601 557 601 514.2 601C471.3 601 428.7 601 385.8 601C343 601 300 601 257.2 601C214.3 601 171.7 601 128.8 601C86 601 43 601 21.5 601L0 601Z" fill="#ef5f67"></path><path d="M0 444L21.5 449C43 454 86 464 128.8 467C171.7 470 214.3 466 257.2 472C300 478 343 494 385.8 489.8C428.7 485.7 471.3 461.3 514.2 450C557 438.7 600 440.3 642.8 444.7C685.7 449 728.3 456 771.2 459.7C814 463.3 857 463.7 878.5 463.8L900 464L900 601L878.5 601C857 601 814 601 771.2 601C728.3 601 685.7 601 642.8 601C600 601 557 601 514.2 601C471.3 601 428.7 601 385.8 601C343 601 300 601 257.2 601C214.3 601 171.7 601 128.8 601C86 601 43 601 21.5 601L0 601Z" fill="#e34c67"></path><path d="M0 512L21.5 511.3C43 510.7 86 509.3 128.8 510.8C171.7 512.3 214.3 516.7 257.2 514C300 511.3 343 501.7 385.8 497C428.7 492.3 471.3 492.7 514.2 495.7C557 498.7 600 504.3 642.8 503C685.7 501.7 728.3 493.3 771.2 495.7C814 498 857 511 878.5 517.5L900 524L900 601L878.5 601C857 601 814 601 771.2 601C728.3 601 685.7 601 642.8 601C600 601 557 601 514.2 601C471.3 601 428.7 601 385.8 601C343 601 300 601 257.2 601C214.3 601 171.7 601 128.8 601C86 601 43 601 21.5 601L0 601Z" fill="#d53867"></path><path d="M0 541L21.5 546.5C43 552 86 563 128.8 564.3C171.7 565.7 214.3 557.3 257.2 550.3C300 543.3 343 537.7 385.8 534.5C428.7 531.3 471.3 530.7 514.2 530.7C557 530.7 600 531.3 642.8 536.3C685.7 541.3 728.3 550.7 771.2 551.5C814 552.3 857 544.7 878.5 540.8L900 537L900 601L878.5 601C857 601 814 601 771.2 601C728.3 601 685.7 601 642.8 601C600 601 557 601 514.2 601C471.3 601 428.7 601 385.8 601C343 601 300 601 257.2 601C214.3 601 171.7 601 128.8 601C86 601 43 601 21.5 601L0 601Z" fill="#c62368"></path></svg>